<?xml version="1.0" encoding="utf-8"?>
<!-- Generator: Adobe Illustrator 28.3.0, SVG Export Plug-In . SVG Version: 6.00 Build 0)  -->
<svg version="1.1" id="Layer_1" xmlns="http://www.w3.org/2000/svg" xmlns:xlink="http://www.w3.org/1999/xlink" x="0px" y="0px"
	 viewBox="0 0 317.2 278.8" style="enable-background:new 0 0 317.2 278.8;" xml:space="preserve">
<style type="text/css">
	.st0{fill-rule:evenodd;clip-rule:evenodd;fill:#650A0B;}
	.st1{fill:#FFFEF4;}
	.st2{fill-rule:evenodd;clip-rule:evenodd;fill:#174126;}
</style>
<g>
	<path class="st0" d="M89.2,144.6l6.8-0.7c-1.6,0.5-3,1.1-4.5,2c-0.3,0.2-0.6,0.3-0.8,0.5c-0.1-0.2-0.3-0.5-0.5-0.7
		C89.8,145.3,89.5,145,89.2,144.6 M143.9,91.8h0.4l-2.4,12l0,0.2c-0.3,2-0.7,3.9-1.1,5.9c-0.6,2.7-1.1,5.4-1.6,8.1
		c-0.5,2.6-1,5.3-1.4,8c-0.3,2.1-0.7,4.3-0.7,6.5c0,3.9,1.3,7.3,4.4,9.7c0.2,0.2,0.5,0.4,0.7,0.5c0,0,0,0,0,0c-1.1,1.1-2.5,2-4,2.4
		c-1.8,0.5-3.7,0.7-5.6,0.7c-2.6,0-5.2-0.3-7.7-0.7c-3-0.5-6.1-1.1-9.1-1.6c-3.2-0.5-6.4-0.8-9.6-0.8c0.3-0.2,0.6-0.4,0.8-0.6
		l1.6-1.6c0.5-0.5,0.8-1.1,0.9-1.9l5.3-31.5c0.4-2.2,0.9-4.4,1.5-6.6c0.5-1.8,1.2-3.6,2-5.3c0.3-0.6,0.6-1.2,1-1.8
		c0.3-0.2,0.7-0.3,1.1-0.3l0.1,0c0.1,0.4,0.1,0.8,0.1,1.1c0,1.7-0.4,3.4-0.9,5c-0.5,1.6-1.2,3.2-2.3,4.5c-0.9,1.3-0.9,2.9,0.1,4.2
		c1.1,1.4,2.6,2.3,4.3,2.7c1.4,0.4,2.8,0.6,4.2,0.6c4.2,0,7.9-1.5,10.8-4.4l1.6-1.6c0.3-0.3,0.7-0.7,1-1.1
		C142.5,100.6,143.9,96.3,143.9,91.8z M102.8,157.7c-1.2,1.8-1.6,4.2-1.6,6.3l0,0.1c0,1.4,0.1,2.8,0.4,4.2c0.1,0.5,0.3,1,0.4,1.5
		l0.4-2.2c0.7-3.4,2-6.6,3.9-9.5c0.4-0.5,0.8-1.1,1.2-1.6c-0.3,0-0.5,0-0.8,0C105.3,156.7,103.9,156.9,102.8,157.7z M73.9,160.7
		c1,3.8,2.3,7.6,3.8,11.2c4.3,10.3,10.6,19.8,18.4,27.7l4.1-20.6c-1,0.8-2.2,1.4-3.5,1.7c-1.2,0.3-2.5,0.6-3.7,0.6
		c-2.8,0-5.5-0.6-7.8-2.2c-2.2-1.5-3.8-3.5-4.8-5.9c-1-2.4-1.4-4.9-1.4-7.5l0-0.1c0-2,0.4-3.9,1-5.8c-1.6,0.5-3.2,0.8-4.9,0.8
		C74.7,160.7,74.3,160.7,73.9,160.7z M164.5,173c-0.8,1-1.4,2.2-1.9,3.3c-0.9,2.3-1.6,4.6-2.2,7c-0.6,2.7-1,5.4-1.3,8.1
		c-0.3,2.6-0.4,5.2-0.4,7.8c0,1.3,0.2,2.8,0.8,4c0.2,0.4,0.9,0.4,1.3,0.4c0.4,0,0.8-0.1,1.2-0.3c0.8-1.1,1.4-2.3,1.9-3.5
		c0.9-2.3,1.7-4.7,2.2-7.1c0.6-2.7,1.1-5.4,1.4-8.1c0.3-2.5,0.4-5.1,0.4-7.6c0-1.3-0.1-2.9-0.8-4c-0.2-0.4-1-0.4-1.3-0.4
		C165.4,172.6,164.9,172.7,164.5,173z M264.6,173.2c0.6-0.4,1.2-0.6,2-0.6c0.6,0,1.3,0.2,1.9,0.4c0.1,0,0.3,0.1,0.4,0.2l-3.9,21.7
		c-0.3,1.8-0.8,3.6-1.4,5.3c-0.4,1.1-0.9,2.2-1.6,3.1c-0.4,0.2-0.9,0.3-1.4,0.3c-0.5,0-0.7,0-0.9-0.4c-0.6-1.5-0.8-3.1-0.8-4.6
		c0-2.6,0.1-5.1,0.4-7.7c0.3-2.6,0.7-5.3,1.3-7.9c0.5-2.3,1.3-4.6,2.3-6.8C263.3,175.1,263.9,174.1,264.6,173.2z M214.8,173
		c-0.8,1-1.4,2.2-1.9,3.3c-0.9,2.3-1.6,4.6-2.2,7c-0.6,2.7-1,5.4-1.3,8.1c-0.3,2.6-0.4,5.2-0.4,7.8c0,1.3,0.2,2.8,0.8,4
		c0.2,0.4,0.9,0.4,1.3,0.4c0.4,0,0.8-0.1,1.2-0.3c0.8-1.1,1.4-2.3,1.9-3.5c0.9-2.3,1.7-4.7,2.2-7.1c0.6-2.7,1.1-5.4,1.4-8.1
		c0.3-2.5,0.4-5.1,0.4-7.6c0-1.3-0.1-2.9-0.8-4c-0.2-0.4-1-0.4-1.3-0.4C215.7,172.6,215.2,172.7,214.8,173z M57.2,100.9
		c-1.1,2.5-2.3,5-3.5,7.4H57c0-1.4,0-2.7,0.1-4.1C57.1,103.1,57.1,102,57.2,100.9z M137.6,185.7l-1.1,1.1c-0.2,0.2-0.4,0.4-0.6,0.5
		c-2.4,2.1-5.5,2.8-8.6,2.8c-1.3,0-2.6-0.1-3.8-0.2c-0.8-0.1-1.6-0.2-2.4-0.3l-2.8,14c-0.5,2.6-1.3,5.3-2.5,7.6
		c-0.4,0.8-0.9,1.6-1.5,2.3c3.4,2,6.8,3.7,10.4,5.2c10.6,4.4,21.8,6.6,33.2,6.6c11.4,0,22.7-2.2,33.2-6.6c2.3-1,4.6-2,6.8-3.2
		c-2.4-1-4.5-2.5-6.2-4.4c-1.8-2-3.1-4.3-3.9-6.9c-0.7-2.3-1.1-4.6-1.1-6.9c-1.1,2.5-2.4,4.9-4.1,7.1c-0.8,1.1-1.8,2.2-2.7,3.2
		l-1.6,1.6c-2,2-4.4,3.8-7,5.1c-4.2,2.2-8.9,3-13.6,3c-3.1,0-6.3-0.4-9.2-1.6c-2.6-1-5-2.6-6.9-4.7c-1.8-2-3.1-4.3-3.9-6.9
		c-0.8-2.6-1.2-5.3-1.2-8C136.5,192.8,136.8,189.3,137.6,185.7z M231.3,120.6l-1.6,1.6c-0.3,0.3-0.6,0.6-1,0.8
		c-0.6,0.4-1.2,0.7-1.9,0.9c-0.1,0.7-0.5,1.2-0.9,1.7l-1.6,1.6c-0.5,0.5-1.1,0.8-1.8,0.9l-2,10.1c-0.4,2.2-1,4.5-1.8,6.6
		c-0.6,1.5-1.5,3-2.6,4.2c0,0,0,0,0,0c0,0,0,0,0,0l-1.6,1.6c-0.2,0.2-0.4,0.4-0.6,0.6c-1.6,1.3-3.5,1.9-5.6,1.9
		c-1.4,0-2.9-0.3-4.2-1c-1.3-0.8-2.3-1.9-2.7-3.3c-0.3-0.9-0.2-1.8,0.2-2.7c0.2-0.3,0.4-0.6,0.6-0.8l0.5-0.5
		c-0.2,0.1-0.4,0.2-0.5,0.3c-2,1.1-4.3,1.5-6.6,1.5c-1.6,0-3.1-0.2-4.6-0.8c-1.4-0.5-2.6-1.3-3.6-2.4c-0.9-1-1.6-2.3-2.1-3.6
		c-0.4-1.3-0.6-2.6-0.6-3.9c0-2.1,0.3-4.1,0.9-6.1c0.6-2,1.5-3.8,2.7-5.4c0.4-0.5,0.8-1,1.3-1.5l1.6-1.6c1-1,2.2-1.9,3.5-2.5
		c2-1,4.3-1.5,6.5-1.5c1.6,0,3.2,0.2,4.6,0.8c1,0.4,2,1,2.8,1.7l0.7-0.7c0.4-0.4,0.8-0.6,1.3-0.8c0.5-1.2,1.1-2.3,2-3.2
		c0.1-0.1,0.1-0.1,0.2-0.2l1.6-1.6c1.2-1.2,2.7-2.1,4.3-2.5c1.6-0.5,3.2-0.7,4.8-0.7c0.9,0,1.8,0.1,2.6,0.2c0.9,0.1,1.8,0.4,2.7,0.7
		c1,0.4,2,1,2.7,1.9c0.9,1.1,1.4,2.4,1.4,3.8C232.9,118.1,232.4,119.5,231.3,120.6L231.3,120.6z M165.8,139L165.8,139
		C165.8,139,165.8,139,165.8,139l-1.7,1.7c-0.4,0.4-0.8,0.8-1.3,1.1c-1.7,1.3-3.7,2.2-5.8,2.7c-2,0.5-4,0.7-6,0.7
		c-0.7,0-1.5,0-2.2-0.1c0.2,0.4,0.5,0.8,0.7,1.3c0.7,1.5,1,3.1,1,4.7c0,2-0.5,3.9-1.5,5.7c-0.5,1-1.2,1.8-1.9,2.6l-1.6,1.6
		c-0.8,0.8-1.6,1.4-2.6,2c-2.3,1.3-4.9,1.8-7.5,1.8c-2.3,0-4.7-0.2-6.9-0.7c-0.7-0.1-1.3-0.3-2-0.5l-1.8,9l1.5,0c1.2,0,2.3,0,3.5,0
		c1.3,0,2.6,0,3.8,0c1.3,0,2.6-0.1,3.8-0.1c1.7-0.1,3.2,1.1,3.5,2.8l0.2,1c0,0,0,0.1,0,0.1c0.9-1.7,1.9-3.4,3.1-5
		c0.8-1.1,1.7-2.1,2.6-3l1.6-1.6c2.1-2.1,4.5-3.8,7.1-5.2c4.2-2.1,8.9-3,13.6-3c3.2,0,6.4,0.4,9.4,1.6c2.6,1,4.9,2.5,6.8,4.6
		c1.8,2,3.1,4.3,3.9,6.8c0.7,2.2,1.1,4.6,1.2,6.9c1.1-2.5,2.4-4.9,4.1-7.1c0.8-1.1,1.7-2.1,2.6-3l1.6-1.6c2.1-2.1,4.5-3.8,7.1-5.2
		c4.2-2.1,8.9-3,13.6-3c3.2,0,6.4,0.4,9.4,1.6c2.6,1,4.9,2.5,6.8,4.6c1.2,1.3,2.1,2.7,2.9,4.3c3.3-9.3,4.9-19,4.9-28.9
		c0-11.4-2.2-22.7-6.6-33.2c-4.4-10.5-10.8-20.1-18.9-28.2c-8.1-8.1-17.7-14.5-28.2-18.9c-10.6-4.4-21.8-6.6-33.2-6.6
		c-11.4,0-22.7,2.2-33.2,6.6C113,64.1,103.6,70.3,95.7,78c-3.7,3.8-7,7.8-9.9,12.2c-0.1,0.2-0.3,0.4-0.4,0.5l-1.6,1.6
		c-0.5,0.5-1.1,0.8-1.7,0.9c-0.1,4-0.1,8.1,0,12.1c0.1,4.5,0.2,9.1,0.5,13.6c0.3,4,0.7,7.9,1.4,11.8c0.2,1.1,0.4,2.2,0.7,3.3
		l9.9-51.4c0.1-0.7,0.5-1.3,0.9-1.8l1.6-1.6c0.5-0.5,1.2-0.9,2-1l14.3-1.8c1.1-0.1,2.1,0.2,2.9,1c0.5,0.5,0.8,1.1,0.9,1.8
		c3.4-2.2,7.3-3.2,11.4-3.2c4.3,0,8.5,1.1,11.4,4.4c0.2,0.2,0.4,0.5,0.6,0.8L141,81c0.4-0.4,0.8-0.6,1.3-0.8c3.9-1.3,7.6-3,11.2-5.1
		c3.7-2.1,7.2-4.6,10.5-7.4c0.6-0.5,1.4-0.8,2.2-0.8h4.3c1.1,0,2,0.4,2.6,1.3c0.7,0.8,0.9,1.8,0.7,2.8l-1.6,7.4h4.4
		c1.1,0,2,0.4,2.6,1.2c0.7,0.8,0.9,1.8,0.7,2.8l-1,5c-0.1,0.7-0.5,1.3-0.9,1.7l-1.6,1.6c-0.6,0.6-1.5,1-2.4,1h-4.5l-6.1,31.3
		c-0.2,0.9-0.4,1.8-0.5,2.7c-0.1,0.7-0.2,1.4-0.2,2.2l0,0.1c0,0.4,0,1.3,0.1,1.8c0.6,0.1,1.8-0.1,2.2-0.1c1.3-0.3,2.5,0.2,3.3,1.2
		c0.8,1,1,2.3,0.4,3.5C168.1,136.2,167.1,137.7,165.8,139z M255.5,161.8l0.6-0.3c3.8-1.9,7.9-2.9,12.1-2.9c1.2,0,2.3,0.1,3.5,0.2
		c0.1-0.4,0.1-0.9,0.2-1.3c0.4-2.6,0.6-5.2,0.7-7.8c0-0.8,0-1.6,0-2.3c0-0.7-0.1-1.3-0.2-2c-0.2-1.1,0.2-2.2,0.9-2.9l1.6-1.6
		c0.2-0.2,0.4-0.4,0.7-0.5c1.3-0.8,2.8-1.3,4.3-1.7c1.6-0.4,3.2-0.6,4.9-0.6c2.6,0,5,0.7,7.2,2.2c2.9,2,3.8,5.3,3.7,8.6
		c0,1.4-0.2,3-0.5,4.4c-0.3,2.2-0.7,4.4-1.1,6.6c-0.5,2.5-1,5-1.6,7.5l-2.9,15.4c-1.1,5.7-2.2,11.3-3.5,17c-0.1,0.6-0.2,1.3-0.3,1.9
		c-0.1,0.4-0.1,0.9-0.1,1.4c0,0.2,0,0.4,0.1,0.6c0.1,0,0.3,0.1,0.4,0.1c1,0.1,1.9,0.6,2.5,1.5c0.6,0.9,0.7,1.8,0.5,2.8
		c-0.5,1.6-1.3,3-2.4,4.2c0,0,0,0,0,0c0,0,0,0,0,0l-1.6,1.6c-0.2,0.2-0.4,0.4-0.6,0.6c-1.3,1.1-2.9,2-4.5,2.5
		c-1.6,0.5-3.3,0.8-4.9,0.8c-2.4,0-4.7-0.6-6.7-1.8c-0.8-0.5-1.5-1-2.1-1.7c-1.1,0.7-2.2,1.3-3.3,1.8c-2.8,1.2-5.8,1.8-8.9,1.8
		c-3.6,0-7.1-0.8-10.1-2.9c-2.7-2-4.6-4.7-5.8-7.8c-1-2.6-1.5-5.4-1.6-8.2c-1,2.1-2.2,4.1-3.6,6c-0.8,1.1-1.8,2.2-2.7,3.2l-1.6,1.6
		c-2,2-4.4,3.8-7,5.1c-0.8,0.4-1.6,0.8-2.5,1.1c0.2,1.1-0.1,2.2-0.9,3l-1.6,1.6c-0.1,0.1-0.2,0.2-0.4,0.3c-6.6,4.9-13.8,9-21.5,12.2
		c-12.2,5-25.2,7.6-38.3,7.6c-13.2,0-26.2-2.6-38.3-7.6c-5.9-2.4-11.5-5.4-16.8-8.9c-1.2-0.8-1.8-2.3-1.4-3.7
		c-1.6-0.1-3.2-0.5-4.7-1.2c-2.2-1-3.9-2.6-4.5-5l0-0.2c-1.1,0.3-2.3,0-3.1-0.8c-0.7-0.6-1.3-1.3-2-1.9
		c-9.3-9.3-16.7-20.4-21.8-32.6c-3.9-9.5-6.4-19.6-7.2-29.8c-0.1-1,0.3-2,1-2.7l1.6-1.6c0.1-0.1,0.3-0.3,0.5-0.4
		c-0.4-1.7-0.7-3.4-1-5.1c-0.7-4.6-1.1-9.3-1.4-14H45.1c-2.1,3.5-4.5,7-7.1,10c-0.7,0.8-1.5,1.7-2.3,2.5l-1.6,1.6
		c-1.8,1.8-3.8,3.4-5.9,4.6c-2.4,1.2-5,2.1-7.6,2.1c-3.1,0-6.2-0.7-8.5-3c-1.9-1.9-2.9-4.3-2.8-7c0-0.9,0.1-1.7,0.4-2.5
		c0.2-0.6,0.5-1.2,0.7-1.8c0.2-0.3,0.4-0.7,0.7-0.9l1.6-1.6c0.6-0.6,1.4-0.9,2.3-1c2-0.1,3.8-0.7,5.5-1.7c1.4-0.8,2.7-1.8,3.9-2.9
		c0.2-0.2,0.3-0.4,0.5-0.5c2.3-2.6,4.4-5.5,6.3-8.5c2.4-3.8,4.5-7.7,6.6-11.7c2.4-4.8,4.8-9.6,7-14.5c2.1-4.7,4.3-9.4,6.3-14.1
		l-0.5-0.1c-1.1-0.2-2.3-0.4-3.5-0.4c-2.6,0-4.8,0.6-6.8,2.1c-1.9,2.3-2.6,5.3-2.7,8.3c0,1.7,0.2,3.5,0.5,5.2
		c0.4,1.8,1.1,3.6,1.9,5.3c0.7,1.3,0.4,2.9-0.6,3.9l-1.6,1.6c-0.1,0.1-0.1,0.1-0.2,0.2c-1.3,1.1-2.9,1.9-4.5,2.5
		c-1.4,0.5-3,0.8-4.5,0.8c-3.2,0-6.3-0.7-8.9-2.5c-2.4-1.7-4.2-4-5.2-6.7c-1.1-2.7-1.5-5.5-1.4-8.4c0.1-4.3,1.4-8.3,3.6-12
		c1.1-1.8,2.3-3.4,3.8-4.9l1.6-1.6c1.8-1.8,4-3.4,6.3-4.7c5-2.9,10.7-3.8,16.4-3.8c2.9,0,5.7,0.2,8.6,0.5c3,0.3,6,0.7,9,1.2
		c3,0.4,5.9,0.8,8.9,1.1c2.7,0.3,5.4,0.5,8.1,0.5c1.9,0,3.4,1.5,3.4,3.4c0,2.4,0,4.8-0.1,7.2c1-1.1,2-2.1,3-3.1l1.6-1.6
		c9.3-9.3,20.4-16.7,32.6-21.8c12.2-5,25.2-7.6,38.3-7.6c13.2,0,26.2,2.6,38.3,7.6c12.2,5,23.2,12.5,32.6,21.8
		c9.3,9.3,16.7,20.4,21.8,32.6c5,12.2,7.6,25.2,7.6,38.3C258.3,146.4,257.3,154.2,255.5,161.8z"/>
	<path class="st1" d="M152.6,140.2c-2.9,0-5.3-0.8-7.4-2.4c-2.1-1.6-3.1-4-3.1-7.1c0-1.5,0.2-3.4,0.6-5.9c0.4-2.5,0.9-5.1,1.4-7.9
		c0.5-2.8,1-5.5,1.6-8c0.6-2.5,0.9-4.6,1.2-6.1l3.2-16.1h-7.2l0.4-3.3c4-1.3,7.9-3.1,11.8-5.3c3.9-2.2,7.6-4.8,11-7.8h4.3l-2.4,11.5
		h8.6l-1,5h-8.6l-6.9,35.6c-0.2,1-0.4,2-0.6,2.9c-0.1,0.9-0.2,1.8-0.2,2.7c-0.1,2.4,0.4,3.9,1.5,4.6c1.1,0.7,2.7,0.9,4.9,0.4
		c-0.9,1.9-2,3.4-3.4,4.4c-1.4,1-2.9,1.7-4.6,2.2C156.1,140,154.4,140.2,152.6,140.2 M88.3,139.8l11.1-58l14.3-1.8l-1.5,10.4
		c1.5-3.4,3.7-6,6.5-7.9c2.8-1.9,6.1-2.9,9.8-2.9c4,0,6.9,1.1,8.9,3.3c2,2.2,3,5.1,3,8.7c0,4.1-1.2,7.6-3.6,10.4
		c-2.4,2.8-5.5,4.2-9.2,4.2c-1.1,0-2.2-0.1-3.3-0.4c-1.1-0.3-1.9-0.8-2.5-1.5c1.1-1.5,2-3.3,2.8-5.5c0.7-2.2,1.1-4.2,1.1-6.1
		c0-1.3-0.3-2.4-0.8-3.3c-0.5-0.8-1.5-1.3-2.9-1.3c-1.4,0-2.7,0.5-3.8,1.5c-1.1,1-2.1,2.4-3,4.1c-0.8,1.7-1.6,3.7-2.2,5.9
		c-0.6,2.2-1.2,4.5-1.6,6.9l-5.3,31.5L88.3,139.8z M48.3,111.7H62c0-2.6,0-5.6,0.1-9c0.1-3.5,0.2-7.2,0.3-11.3
		c0.1-4.1,0.3-8.3,0.6-12.5h-0.2c-2.6,6.8-5.1,12.9-7.7,18.4C52.5,102.7,50.3,107.6,48.3,111.7z M211.3,123.1l0.3-1.7h2.7l0.5-2.2
		c0.4-1.5,1-2.6,1.8-3.5c0.8-0.9,1.8-1.5,3-1.8c1.2-0.4,2.5-0.5,3.9-0.5c0.7,0,1.4,0.1,2.1,0.2c0.7,0.1,1.4,0.3,1.9,0.5
		c0.6,0.2,1.1,0.5,1.4,1c0.4,0.4,0.5,0.9,0.5,1.5c0,0.9-0.3,1.6-1,2c-0.7,0.4-1.5,0.6-2.3,0.6c-0.3,0-0.7,0-1-0.1
		c-0.3-0.1-0.7-0.2-0.9-0.3c0.2-0.3,0.3-0.6,0.4-1c0.1-0.4,0.1-0.8,0.1-1.1c0-0.5-0.1-0.8-0.3-1.1c-0.2-0.3-0.6-0.4-1.1-0.4
		c-0.8,0-1.4,0.4-1.8,1.1c-0.4,0.7-0.7,1.6-0.9,2.7l-0.5,2.6h3.4l-0.2,1.7H211.3z M209.8,148.1c-1,0-1.8-0.2-2.4-0.5
		c-0.6-0.4-1-0.8-1.2-1.5c0.7-0.2,1.4-0.5,1.9-0.8c0.5-0.4,1-0.9,1.4-1.5c0.4-0.7,0.7-1.6,1.1-2.8c0.3-1.2,0.7-2.6,1-4.4l2.6-14h5.9
		l-2.9,14.9c-0.5,2.4-1,4.4-1.6,6c-0.6,1.6-1.4,2.7-2.3,3.5C212.3,147.7,211.1,148.1,209.8,148.1z M197.7,139.3
		c0.7,0,1.3-0.3,1.9-0.9c0.5-0.6,1-1.3,1.4-2.3c0.4-1,0.7-2,1-3.2c0.3-1.2,0.5-2.3,0.6-3.5c0.1-1.2,0.2-2.3,0.2-3.3
		c0-1-0.2-1.7-0.5-2.3c-0.3-0.6-0.9-0.9-1.8-0.9c-0.7,0-1.3,0.3-1.9,0.8c-0.6,0.6-1,1.3-1.4,2.3c-0.4,0.9-0.7,2-1,3.1
		c-0.3,1.2-0.4,2.3-0.6,3.5c-0.1,1.2-0.2,2.3-0.2,3.4c0,0.9,0.2,1.7,0.5,2.3C196.3,139,196.9,139.3,197.7,139.3z M197.1,141.6
		c-1.3,0-2.4-0.2-3.3-0.6c-0.9-0.4-1.7-0.9-2.3-1.6c-0.6-0.7-1.1-1.5-1.3-2.3c-0.3-0.9-0.4-1.9-0.4-2.9c0-1.8,0.2-3.5,0.7-5.2
		c0.5-1.6,1.2-3.1,2.2-4.4c1-1.3,2.1-2.3,3.6-3c1.4-0.7,3.1-1.1,5-1.1c1.3,0,2.4,0.2,3.4,0.6c0.9,0.4,1.7,0.9,2.3,1.5
		c0.6,0.7,1,1.4,1.3,2.3c0.3,0.9,0.4,1.8,0.4,2.9c0,1.8-0.2,3.5-0.7,5.2c-0.5,1.6-1.2,3.1-2.2,4.4c-1,1.3-2.1,2.3-3.6,3
		C200.7,141.3,199,141.6,197.1,141.6z M289.1,166.8l-13.9-0.8c0.7-3.3,1.2-6.5,1.7-9.6c0.4-3.1,0.7-5.8,0.7-8.2c0-0.9,0-1.8,0-2.5
		c0-0.8-0.1-1.5-0.2-2.3c0.9-0.6,2.1-1,3.4-1.3c1.3-0.3,2.7-0.5,4-0.5c2,0,3.7,0.5,5.2,1.6c1.5,1,2.3,2.9,2.2,5.7
		c0,0.8-0.1,2.1-0.4,4c-0.3,1.8-0.6,4-1.1,6.4C290.3,161.5,289.7,164.1,289.1,166.8z M260.5,206.9c2,0,3.6-0.7,4.8-2.1
		c1.3-1.4,2.3-3.1,3-5.1c0.7-2,1.3-4,1.6-5.9l4.3-24c-1-0.7-2-1.3-3.1-1.7c-1.1-0.4-2.1-0.6-3-0.6c-1.8,0-3.4,0.6-4.8,1.9
		c-1.4,1.3-2.6,3-3.6,5.2c-1,2.2-1.8,4.7-2.5,7.4c-0.6,2.7-1.1,5.5-1.4,8.3c-0.3,2.8-0.4,5.5-0.4,8c0,2.2,0.3,4.2,1,5.9
		C257.2,206,258.5,206.9,260.5,206.9z M255.7,212.6c-3.3,0-6-0.8-8.1-2.3c-2.1-1.5-3.6-3.6-4.6-6.3c-1-2.7-1.5-5.7-1.5-9.2
		c0-4.6,0.7-8.9,2-12.9c1.3-4,3.2-7.5,5.7-10.5c2.4-3,5.3-5.3,8.5-7c3.2-1.7,6.8-2.5,10.6-2.5c1.6,0,3.1,0.1,4.6,0.4
		c1.5,0.2,2.8,0.6,4,1.1l12.4,2.4c-1,5.2-2,10.6-3,16.1c-1,5.5-2.2,11.2-3.5,17.1c-0.1,0.6-0.2,1.2-0.3,1.9
		c-0.1,0.7-0.2,1.4-0.2,1.9c0,1,0.3,1.9,0.9,2.7c0.6,0.8,1.5,1.2,2.7,1.3c-0.4,1.3-1,2.3-2,3.2c-1,0.8-2.1,1.4-3.4,1.8
		c-1.3,0.4-2.6,0.6-3.9,0.6c-1.8,0-3.5-0.4-4.9-1.3c-1.4-0.9-2.4-2.2-2.8-3.9c-1.6,1.5-3.5,2.8-5.7,3.8
		C260.9,212.1,258.4,212.6,255.7,212.6z M211.2,207.1c1.7,0,3.1-0.7,4.5-2.1c1.3-1.4,2.5-3.2,3.4-5.5c1-2.3,1.7-4.8,2.4-7.6
		c0.6-2.8,1.1-5.6,1.4-8.5c0.3-2.9,0.5-5.5,0.5-8c0-2.3-0.4-4.2-1.2-5.7c-0.8-1.4-2.2-2.2-4.3-2.2c-1.7,0-3.2,0.7-4.5,2
		c-1.3,1.3-2.5,3.2-3.4,5.4c-0.9,2.3-1.7,4.8-2.3,7.6c-0.6,2.8-1.1,5.6-1.4,8.5c-0.3,2.9-0.5,5.6-0.5,8.2c0,2.3,0.4,4.1,1.2,5.6
		C207.6,206.4,209.1,207.1,211.2,207.1z M209.6,212.6c-3.1,0-5.7-0.4-8-1.3c-2.3-0.9-4.1-2.1-5.6-3.8c-1.5-1.6-2.5-3.5-3.2-5.7
		c-0.7-2.1-1-4.5-1-7c0-4.4,0.6-8.5,1.7-12.5c1.2-4,2.9-7.5,5.2-10.5c2.3-3.1,5.2-5.5,8.6-7.2c3.4-1.7,7.4-2.6,12-2.6
		c3.2,0,5.9,0.4,8.1,1.3c2.2,0.9,4.1,2.1,5.5,3.7c1.4,1.6,2.5,3.4,3.2,5.6c0.7,2.1,1,4.4,1,6.9c0,4.4-0.6,8.5-1.7,12.5
		c-1.2,4-2.9,7.5-5.2,10.6c-2.3,3.1-5.2,5.5-8.6,7.3C218.2,211.7,214.2,212.6,209.6,212.6z M160.9,207.1c1.7,0,3.1-0.7,4.5-2.1
		c1.3-1.4,2.5-3.2,3.4-5.5c1-2.3,1.7-4.8,2.4-7.6c0.6-2.8,1.1-5.6,1.4-8.5c0.3-2.9,0.5-5.5,0.5-8c0-2.3-0.4-4.2-1.2-5.7
		c-0.8-1.4-2.2-2.2-4.3-2.2c-1.7,0-3.2,0.7-4.5,2c-1.3,1.3-2.5,3.2-3.4,5.4c-0.9,2.3-1.7,4.8-2.3,7.6c-0.6,2.8-1.1,5.6-1.4,8.5
		c-0.3,2.9-0.5,5.6-0.5,8.2c0,2.3,0.4,4.1,1.2,5.6C157.3,206.4,158.8,207.1,160.9,207.1z M159.3,212.6c-3.1,0-5.7-0.4-8-1.3
		c-2.3-0.9-4.1-2.1-5.6-3.8c-1.5-1.6-2.5-3.5-3.2-5.7c-0.7-2.1-1-4.5-1-7c0-4.4,0.6-8.5,1.7-12.5c1.2-4,2.9-7.5,5.2-10.5
		c2.3-3.1,5.2-5.5,8.6-7.2c3.4-1.7,7.4-2.6,12-2.6c3.2,0,5.9,0.4,8.1,1.3c2.2,0.9,4.1,2.1,5.5,3.7c1.4,1.6,2.5,3.4,3.2,5.6
		c0.7,2.1,1,4.4,1,6.9c0,4.4-0.6,8.5-1.7,12.5c-1.2,4-2.9,7.5-5.2,10.6c-2.3,3.1-5.2,5.5-8.6,7.3
		C167.9,211.7,163.9,212.6,159.3,212.6z M129,185.2c-1,0-2.2-0.1-3.5-0.2c-1.4-0.1-2.8-0.3-4.3-0.6c-1.5-0.2-2.9-0.5-4.1-0.8l1.7-8
		c1,0.1,2.1,0.1,3.4,0.2c1.3,0.1,2.6,0.1,4,0.1c1.3,0,2.5,0,3.6,0c1.3,0,2.6,0,3.9,0c1.3,0,2.6-0.1,3.9-0.1c0.1,0.4,0.1,0.7,0.2,1.1
		c0.1,0.3,0.1,0.7,0.1,1.1c-0.1,2.2-0.9,4-2.4,5.3C133.8,184.5,131.7,185.2,129,185.2z M102.9,215.3c-1.8,0-3.4-0.3-4.8-1
		c-1.4-0.6-2.3-1.5-2.5-2.6c0.9-0.4,1.6-1,2.2-1.8s1-1.7,1.4-2.9c0.4-1.2,0.8-2.7,1.1-4.6l7.1-35.5c0.7-3.2,1.8-5.9,3.4-8.2
		c1.6-2.3,3.6-4.1,6.1-5.5c2.5-1.4,5.4-2.3,8.7-2.6L115,203.1c-0.6,2.7-1.3,4.9-2.2,6.8c-0.9,1.8-2.2,3.2-3.7,4
		C107.5,214.8,105.5,215.3,102.9,215.3z M94.6,176.3c-2.3,0-4.3-0.5-5.9-1.6c-1.6-1.1-2.8-2.5-3.5-4.4c-0.8-1.8-1.1-3.9-1.1-6.2
		c0.1-2.9,0.8-5.7,2.3-8.5c1.5-2.8,3.8-5.1,6.9-6.9c3.1-1.8,7.1-2.8,12-2.8c3.5,0,6.8,0.3,9.9,0.8c3.1,0.5,6.1,1,9.1,1.6
		c2.9,0.5,5.7,0.8,8.3,0.8c2.3,0,4.5-0.3,6.4-0.8c2-0.5,3.8-1.6,5.5-3.3c0.7,0.7,1.3,1.6,1.8,2.7c0.5,1,0.7,2.1,0.7,3.3
		c0,1.4-0.4,2.8-1.1,4.1c-0.7,1.3-1.8,2.4-3.3,3.3c-1.5,0.9-3.4,1.3-5.8,1.3c-2.1,0-4.2-0.2-6.3-0.6c-2.1-0.4-4.3-1.1-6.8-1.9
		c-2.4-0.9-5.2-2-8.2-3.3l-0.1-0.7c-1.4-0.6-2.7-0.9-3.8-1.1c-1.1-0.2-2.3-0.3-3.5-0.3c-3.2,0-5.8,1.1-7.7,3.3
		c-1.9,2.2-2.9,5.2-2.9,9.1c-0.1,1.8,0.1,3.5,0.5,5.1c0.4,1.6,1,3.3,1.9,5.1c-0.8,0.7-1.7,1.3-2.8,1.6
		C96.3,176.1,95.4,176.3,94.6,176.3z M91.4,208.9c-0.6-0.6-1.3-1.2-1.9-1.9c-8.9-8.9-16.1-19.6-21-31.4c-3.7-9-6.1-18.7-7-28.8
		c0.3,0.9,0.7,1.8,1,2.7c1.3,2.9,3.1,5.8,5.7,7.7c0.5,0.4,1,0.7,1.5,1c1.1,5.2,2.7,10.1,4.7,14.9c4.6,11,11.3,21,19.6,29.3
		c0.5,0.5,1,0.9,1.4,1.4c-0.1,0.6-0.3,1.2-0.5,1.7c-0.2,0.6-0.5,1.3-0.9,1.9c-0.1,0.2-0.3,0.3-0.4,0.3L91.4,208.9z M215.8,216.3
		c-6.4,4.7-13.3,8.7-20.7,11.8c-11.4,4.7-23.9,7.3-37,7.3c-13.1,0-25.6-2.6-37-7.3c-5.7-2.4-11.2-5.3-16.3-8.6
		c2.3-0.2,4.5-0.7,6.5-1.8c0.5-0.3,1-0.6,1.4-0.9c3.5,2,7.1,3.8,10.9,5.4c10.6,4.4,22.3,6.8,34.5,6.8c12.2,0,23.9-2.4,34.5-6.8
		c4-1.6,7.8-3.6,11.4-5.7c1.8,0.4,3.7,0.5,5.6,0.5C211.7,216.9,213.7,216.7,215.8,216.3z M158,41.8c13.1,0,25.6,2.6,37,7.3
		c11.9,4.9,22.5,12.1,31.4,21c8.9,8.9,16.1,19.6,21,31.5c4.7,11.4,7.3,23.9,7.3,37c0,8.5-1.1,16.8-3.2,24.6
		c-2.2,1.6-4.1,3.5-5.8,5.6c-1.8,2.3-3.4,4.8-4.6,7.4c-0.1-0.6-0.2-1.3-0.3-1.9c0.2-0.4,0.4-0.8,0.5-1.2c4.4-10.6,6.8-22.3,6.8-34.5
		c0-12.2-2.4-23.9-6.8-34.5c-4.6-11-11.3-21-19.6-29.3c-8.3-8.3-18.3-15-29.3-19.6c-10.6-4.4-22.3-6.8-34.5-6.8
		c-12.2,0-23.9,2.4-34.5,6.8c-11,4.6-21,11.3-29.3,19.6C90,78.9,86.3,83.4,83,88.2c0.1-3.4,0.2-6.7,0.2-10.1l0-1.1
		c2-2.4,4.1-4.7,6.2-6.9c8.9-8.9,19.6-16.1,31.5-21C132.4,44.4,144.9,41.8,158,41.8z M76.6,155.7c-2.2,0-4.2-0.6-5.8-1.9
		c-1.7-1.3-3.1-3.3-4.4-6c-1.2-2.8-2.2-6.4-2.9-11c-0.7-4.6-1.2-10.2-1.5-16.9h-18c-3.2,5.5-6,9.8-8.7,12.8c-2.6,3-5,5.1-7.2,6.2
		c-2.2,1.1-4.2,1.7-6.1,1.7c-2.7,0-4.7-0.7-6-2c-1.3-1.3-1.9-2.8-1.8-4.5c0-0.6,0.1-1.1,0.2-1.5c0.1-0.4,0.3-0.9,0.6-1.3
		c2.4-0.1,4.8-0.8,7.1-2.2c2.3-1.4,4.6-3.3,6.8-5.7c2.2-2.5,4.4-5.5,6.6-9c2.2-3.5,4.4-7.5,6.7-12c2.3-4.4,4.6-9.3,7.1-14.6
		c2.4-5.3,5-11,7.6-17l-0.6-1c-1-0.4-2.2-0.7-3.6-1c-1.4-0.3-2.8-0.4-4.2-0.4c-4.3,0-7.7,1.4-10.3,4.1c-2.6,2.8-4,6.5-4.1,11.2
		c0,2.1,0.2,4,0.6,5.9c0.4,1.9,1.1,3.9,2.2,6.1c-1,0.8-2.1,1.4-3.4,1.8c-1.3,0.4-2.4,0.6-3.5,0.6c-2.8,0-5.1-0.6-6.9-1.9
		c-1.8-1.3-3.2-3-4-5.2c-0.8-2.2-1.2-4.5-1.2-7.1c0.1-3.5,1.1-7,3.1-10.3c2-3.3,4.9-6.1,8.8-8.4c3.9-2.2,8.8-3.4,14.7-3.4
		c2.6,0,5.3,0.2,8.2,0.5c2.9,0.3,5.9,0.7,8.9,1.2c3.1,0.4,6.1,0.8,9,1.2c3,0.3,5.8,0.5,8.4,0.5c0,4-0.1,8.3-0.2,12.8
		c-0.1,4.5-0.2,9-0.3,13.7c-0.1,4.6-0.1,9.2-0.1,13.7c0.1,4.8,0.3,9.4,0.6,13.8c0.3,4.4,0.8,8.5,1.4,12.2c0.7,3.7,1.6,7,2.8,9.8
		c1.2,2.8,2.6,5.1,4.4,6.9c-0.3,1.1-1,2.2-2,3.4c-1.1,1.2-2.4,2.2-3.9,3C80.3,155.3,78.6,155.7,76.6,155.7z"/>
</g>
</svg>
