<?xml version="1.0" encoding="utf-8"?>
<!-- Generator: Adobe Illustrator 28.3.0, SVG Export Plug-In . SVG Version: 6.00 Build 0)  -->
<svg version="1.1" id="Layer_1" xmlns="http://www.w3.org/2000/svg" xmlns:xlink="http://www.w3.org/1999/xlink" x="0px" y="0px"
	 viewBox="0 0 317.2 283.9" style="enable-background:new 0 0 317.2 283.9;" xml:space="preserve">
<style type="text/css">
	.st0{fill-rule:evenodd;clip-rule:evenodd;fill:#650A0B;}
	.st1{fill:#FFFEF4;}
	.st2{fill-rule:evenodd;clip-rule:evenodd;fill:#174126;}
</style>
<path class="st2" d="M97,153.8l6.8-0.7c-1.6,0.5-3,1.1-4.5,2c-0.3,0.2-0.6,0.3-0.8,0.5c-0.1-0.2-0.3-0.5-0.5-0.7
	C97.6,154.6,97.3,154.2,97,153.8 M151.7,101h0.4l-2.4,12l0,0.2c-0.3,2-0.7,3.9-1.1,5.9c-0.6,2.7-1.1,5.4-1.6,8.1
	c-0.5,2.6-1,5.3-1.4,8c-0.3,2.1-0.7,4.3-0.7,6.5c0,3.9,1.3,7.3,4.4,9.7c0.2,0.2,0.5,0.4,0.7,0.5c0,0,0,0,0,0c-1.1,1.1-2.5,2-4,2.4
	c-1.8,0.5-3.7,0.7-5.6,0.7c-2.6,0-5.2-0.3-7.7-0.7c-3-0.5-6.1-1.1-9.1-1.6c-3.2-0.5-6.4-0.8-9.6-0.8c0.3-0.2,0.6-0.4,0.8-0.6
	l1.6-1.6c0.5-0.5,0.8-1.1,0.9-1.9l5.3-31.5c0.4-2.2,0.9-4.4,1.5-6.6c0.5-1.8,1.2-3.6,2-5.3c0.3-0.6,0.6-1.2,1-1.8
	c0.3-0.2,0.7-0.3,1.1-0.3l0.1,0c0.1,0.4,0.1,0.8,0.1,1.1c0,1.7-0.4,3.4-0.9,5c-0.5,1.6-1.2,3.2-2.3,4.5c-0.9,1.3-0.9,2.9,0.1,4.2
	c1.1,1.4,2.6,2.3,4.3,2.7c1.4,0.4,2.8,0.6,4.2,0.6c4.2,0,7.9-1.5,10.8-4.4l1.6-1.6c0.3-0.3,0.7-0.7,1-1.1
	C150.3,109.8,151.6,105.6,151.7,101z M110.5,167c-1.2,1.8-1.6,4.2-1.6,6.3l0,0.1c0,1.4,0.1,2.8,0.4,4.2c0.1,0.5,0.3,1,0.4,1.5
	l0.4-2.2c0.7-3.4,2-6.6,3.9-9.5c0.4-0.5,0.8-1.1,1.2-1.6c-0.3,0-0.5,0-0.8,0C113,165.9,111.7,166.2,110.5,167z M81.7,169.9
	c1,3.8,2.3,7.6,3.8,11.2c4.3,10.3,10.6,19.8,18.4,27.7l4.1-20.6c-1,0.8-2.2,1.4-3.5,1.7c-1.2,0.3-2.5,0.6-3.7,0.6
	c-2.8,0-5.5-0.6-7.8-2.2c-2.2-1.5-3.8-3.5-4.8-5.9c-1-2.4-1.4-4.9-1.4-7.5l0-0.1c0-2,0.4-3.9,1-5.8c-1.6,0.5-3.2,0.8-4.9,0.8
	C82.4,169.9,82,169.9,81.7,169.9z M172.3,182.2c-0.8,1-1.4,2.2-1.9,3.3c-0.9,2.3-1.6,4.6-2.2,7c-0.6,2.7-1,5.4-1.3,8.1
	c-0.3,2.6-0.4,5.2-0.4,7.8c0,1.3,0.2,2.8,0.8,4c0.2,0.4,0.9,0.4,1.3,0.4c0.4,0,0.8-0.1,1.2-0.3c0.8-1.1,1.4-2.3,1.9-3.5
	c0.9-2.3,1.7-4.7,2.2-7.1c0.6-2.7,1.1-5.4,1.4-8.1c0.3-2.5,0.4-5.1,0.4-7.6c0-1.3-0.1-2.9-0.8-4c-0.2-0.4-1-0.4-1.3-0.4
	C173.1,181.8,172.7,182,172.3,182.2z M272.3,182.4c0.6-0.4,1.2-0.6,2-0.6c0.6,0,1.3,0.2,1.9,0.4c0.1,0,0.3,0.1,0.4,0.2l-3.9,21.7
	c-0.3,1.8-0.8,3.6-1.4,5.3c-0.4,1.1-0.9,2.2-1.6,3.1c-0.4,0.2-0.9,0.3-1.4,0.3c-0.5,0-0.7,0-0.9-0.4c-0.6-1.5-0.8-3.1-0.8-4.6
	c0-2.6,0.1-5.1,0.4-7.7c0.3-2.6,0.7-5.3,1.3-7.9c0.5-2.3,1.3-4.6,2.3-6.8C271.1,184.4,271.6,183.3,272.3,182.4z M222.6,182.2
	c-0.8,1-1.4,2.2-1.9,3.3c-0.9,2.3-1.6,4.6-2.2,7c-0.6,2.7-1,5.4-1.3,8.1c-0.3,2.6-0.4,5.2-0.4,7.8c0,1.3,0.2,2.8,0.8,4
	c0.2,0.4,0.9,0.4,1.3,0.4c0.4,0,0.8-0.1,1.2-0.3c0.8-1.1,1.4-2.3,1.9-3.5c0.9-2.3,1.7-4.7,2.2-7.1c0.6-2.7,1.1-5.4,1.4-8.1
	c0.3-2.5,0.4-5.1,0.4-7.6c0-1.3-0.1-2.9-0.8-4c-0.2-0.4-1-0.4-1.3-0.4C223.4,181.8,223,182,222.6,182.2z M64.9,110.1
	c-1.1,2.5-2.3,5-3.5,7.4h3.3c0-1.4,0-2.7,0.1-4.1C64.9,112.3,64.9,111.2,64.9,110.1z M145.4,195l-1.1,1.1c-0.2,0.2-0.4,0.4-0.6,0.5
	c-2.4,2.1-5.5,2.8-8.6,2.8c-1.3,0-2.6-0.1-3.8-0.2c-0.8-0.1-1.6-0.2-2.4-0.3l-2.8,14c-0.5,2.6-1.3,5.3-2.5,7.6
	c-0.4,0.8-0.9,1.6-1.5,2.3c3.4,2,6.8,3.7,10.4,5.2c10.6,4.4,21.8,6.6,33.2,6.6c11.4,0,22.7-2.2,33.2-6.6c2.3-1,4.6-2,6.8-3.2
	c-2.4-1-4.5-2.5-6.2-4.4c-1.8-2-3.1-4.3-3.9-6.9c-0.7-2.3-1.1-4.6-1.1-6.9c-1.1,2.5-2.4,4.9-4.1,7.1c-0.8,1.1-1.8,2.2-2.7,3.2
	l-1.6,1.6c-2,2-4.4,3.8-7,5.1c-4.2,2.2-8.9,3-13.6,3c-3.1,0-6.3-0.4-9.2-1.6c-2.6-1-5-2.6-6.9-4.7c-1.8-2-3.1-4.3-3.9-6.9
	c-0.8-2.6-1.2-5.3-1.2-8C144.2,202.1,144.6,198.5,145.4,195z M239.1,129.8l-1.6,1.6c-0.3,0.3-0.6,0.6-1,0.8
	c-0.6,0.4-1.2,0.7-1.9,0.9c-0.1,0.7-0.5,1.2-0.9,1.7l-1.6,1.6c-0.5,0.5-1.1,0.8-1.8,0.9l-2,10.1c-0.4,2.2-1,4.5-1.8,6.6
	c-0.6,1.5-1.5,3-2.6,4.2c0,0,0,0,0,0c0,0,0,0,0,0l-1.6,1.6c-0.2,0.2-0.4,0.4-0.6,0.6c-1.6,1.3-3.5,1.9-5.6,1.9c-1.4,0-2.9-0.3-4.2-1
	c-1.3-0.8-2.3-1.9-2.7-3.3c-0.3-0.9-0.2-1.8,0.2-2.7c0.2-0.3,0.4-0.6,0.6-0.8l0.5-0.5c-0.2,0.1-0.4,0.2-0.5,0.3
	c-2,1.1-4.3,1.5-6.6,1.5c-1.6,0-3.1-0.2-4.6-0.8c-1.4-0.5-2.6-1.3-3.6-2.4c-0.9-1-1.6-2.3-2.1-3.6c-0.4-1.3-0.6-2.6-0.6-3.9
	c0-2.1,0.3-4.1,0.9-6.1c0.6-2,1.5-3.8,2.7-5.4c0.4-0.5,0.8-1,1.3-1.5l1.6-1.6c1-1,2.2-1.9,3.5-2.5c2-1,4.3-1.5,6.5-1.5
	c1.6,0,3.2,0.2,4.6,0.8c1,0.4,2,1,2.8,1.7l0.7-0.7c0.4-0.4,0.8-0.6,1.3-0.8c0.5-1.2,1.1-2.3,2-3.2c0.1-0.1,0.1-0.1,0.2-0.2l1.6-1.6
	c1.2-1.2,2.7-2.1,4.3-2.5c1.6-0.5,3.2-0.7,4.8-0.7c0.9,0,1.8,0.1,2.6,0.2c0.9,0.1,1.8,0.4,2.7,0.7c1,0.4,2,1,2.7,1.9
	c0.9,1.1,1.4,2.4,1.4,3.8C240.7,127.3,240.1,128.8,239.1,129.8L239.1,129.8z M173.6,148.3L173.6,148.3
	C173.5,148.3,173.5,148.3,173.6,148.3l-1.7,1.7c-0.4,0.4-0.8,0.8-1.3,1.1c-1.7,1.3-3.7,2.2-5.8,2.7c-2,0.5-4,0.7-6,0.7
	c-0.7,0-1.5,0-2.2-0.1c0.2,0.4,0.5,0.8,0.7,1.3c0.7,1.5,1,3.1,1,4.7c0,2-0.5,3.9-1.5,5.7c-0.5,1-1.2,1.8-1.9,2.6l-1.6,1.6
	c-0.8,0.8-1.6,1.4-2.6,2c-2.3,1.3-4.9,1.8-7.5,1.8c-2.3,0-4.7-0.2-6.9-0.7c-0.7-0.1-1.3-0.3-2-0.5l-1.8,9l1.5,0c1.2,0,2.3,0,3.5,0
	c1.3,0,2.6,0,3.8,0c1.3,0,2.6-0.1,3.8-0.1c1.7-0.1,3.2,1.1,3.5,2.8l0.2,1c0,0,0,0.1,0,0.1c0.9-1.7,1.9-3.4,3.1-5
	c0.8-1.1,1.7-2.1,2.6-3l1.6-1.6c2.1-2.1,4.5-3.8,7.1-5.2c4.2-2.1,8.9-3,13.6-3c3.2,0,6.4,0.4,9.4,1.6c2.6,1,4.9,2.5,6.8,4.6
	c1.8,2,3.1,4.3,3.9,6.8c0.7,2.2,1.1,4.6,1.2,6.9c1.1-2.5,2.4-4.9,4.1-7.1c0.8-1.1,1.7-2.1,2.6-3l1.6-1.6c2.1-2.1,4.5-3.8,7.1-5.2
	c4.2-2.1,8.9-3,13.6-3c3.2,0,6.4,0.4,9.4,1.6c2.6,1,4.9,2.5,6.8,4.6c1.2,1.3,2.1,2.7,2.9,4.3c3.3-9.3,4.9-19,4.9-28.9
	c0-11.4-2.2-22.7-6.6-33.2c-4.4-10.5-10.8-20.1-18.9-28.2c-8.1-8.1-17.7-14.5-28.2-18.9c-10.6-4.4-21.8-6.6-33.2-6.6
	c-11.4,0-22.7,2.2-33.2,6.6c-10.2,4.2-19.5,10.4-27.4,18.1c-3.7,3.8-7,7.8-9.9,12.2c-0.1,0.2-0.3,0.4-0.4,0.5l-1.6,1.6
	c-0.5,0.5-1.1,0.8-1.7,0.9c-0.1,4-0.1,8.1,0,12.1c0.1,4.5,0.2,9.1,0.5,13.6c0.3,4,0.7,7.9,1.4,11.8c0.2,1.1,0.4,2.2,0.7,3.3
	l9.9-51.4c0.1-0.7,0.5-1.3,0.9-1.8l1.6-1.6c0.5-0.5,1.2-0.9,2-1l14.3-1.8c1.1-0.1,2.1,0.2,2.9,1c0.5,0.5,0.8,1.1,0.9,1.8
	c3.4-2.2,7.3-3.2,11.4-3.2c4.3,0,8.5,1.1,11.4,4.4c0.2,0.2,0.4,0.5,0.6,0.8l0.3-0.3c0.4-0.4,0.8-0.6,1.3-0.8c3.9-1.3,7.6-3,11.2-5.1
	c3.7-2.1,7.2-4.6,10.5-7.4c0.6-0.5,1.4-0.8,2.2-0.8h4.3c1.1,0,2,0.4,2.6,1.3c0.7,0.8,0.9,1.8,0.7,2.8l-1.6,7.4h4.4
	c1.1,0,2,0.4,2.6,1.2c0.7,0.8,0.9,1.8,0.7,2.8l-1,5c-0.1,0.7-0.5,1.3-0.9,1.7l-1.6,1.6c-0.6,0.6-1.5,1-2.4,1h-4.5l-6.1,31.3
	c-0.2,0.9-0.4,1.8-0.5,2.7c-0.1,0.7-0.2,1.4-0.2,2.2l0,0.1c0,0.4,0,1.3,0.1,1.8c0.6,0.1,1.8-0.1,2.2-0.1c1.3-0.3,2.5,0.2,3.3,1.2
	c0.8,1,1,2.3,0.4,3.5C175.8,145.4,174.8,147,173.6,148.3z M263.3,171l0.6-0.3c3.8-1.9,7.9-2.9,12.1-2.9c1.2,0,2.3,0.1,3.5,0.2
	c0.1-0.4,0.1-0.9,0.2-1.3c0.4-2.6,0.6-5.2,0.7-7.8c0-0.8,0-1.6,0-2.3c0-0.7-0.1-1.3-0.2-2c-0.2-1.1,0.2-2.2,0.9-2.9l1.6-1.6
	c0.2-0.2,0.4-0.4,0.7-0.5c1.3-0.8,2.8-1.3,4.3-1.7c1.6-0.4,3.2-0.6,4.9-0.6c2.6,0,5,0.7,7.2,2.2c2.9,2,3.8,5.3,3.7,8.6
	c0,1.4-0.2,3-0.5,4.4c-0.3,2.2-0.7,4.4-1.1,6.6c-0.5,2.5-1,5-1.6,7.5l-2.9,15.4c-1.1,5.7-2.2,11.3-3.5,17c-0.1,0.6-0.2,1.3-0.3,1.9
	c-0.1,0.4-0.1,0.9-0.1,1.4c0,0.2,0,0.4,0.1,0.6c0.1,0,0.3,0.1,0.4,0.1c1,0.1,1.9,0.6,2.5,1.5c0.6,0.9,0.7,1.8,0.5,2.8
	c-0.5,1.6-1.3,3-2.4,4.2c0,0,0,0,0,0c0,0,0,0,0,0l-1.6,1.6c-0.2,0.2-0.4,0.4-0.6,0.6c-1.3,1.1-2.9,2-4.5,2.5
	c-1.6,0.5-3.3,0.8-4.9,0.8c-2.4,0-4.7-0.6-6.7-1.8c-0.8-0.5-1.5-1-2.1-1.7c-1.1,0.7-2.2,1.3-3.3,1.8c-2.8,1.2-5.8,1.8-8.9,1.8
	c-3.6,0-7.1-0.8-10.1-2.9c-2.7-2-4.6-4.7-5.8-7.8c-1-2.6-1.5-5.4-1.6-8.2c-1,2.1-2.2,4.1-3.6,6c-0.8,1.1-1.8,2.2-2.7,3.2l-1.6,1.6
	c-2,2-4.4,3.8-7,5.1c-0.8,0.4-1.6,0.8-2.5,1.1c0.2,1.1-0.1,2.2-0.9,3l-1.6,1.6c-0.1,0.1-0.2,0.2-0.4,0.3c-6.6,4.9-13.8,9-21.5,12.2
	c-12.2,5-25.2,7.6-38.3,7.6c-13.2,0-26.2-2.6-38.3-7.6c-5.9-2.4-11.5-5.4-16.8-8.9c-1.2-0.8-1.8-2.3-1.4-3.7
	c-1.6-0.1-3.2-0.5-4.7-1.2c-2.2-1-3.9-2.6-4.5-5l0-0.2c-1.1,0.3-2.3,0-3.1-0.8c-0.7-0.6-1.3-1.3-2-1.9C84,211,76.5,200,71.5,187.8
	c-3.9-9.5-6.4-19.6-7.2-29.8c-0.1-1,0.3-2,1-2.7l1.6-1.6c0.1-0.1,0.3-0.3,0.5-0.4c-0.4-1.7-0.7-3.4-1-5.1c-0.7-4.6-1.1-9.3-1.4-14
	H52.9c-2.1,3.5-4.5,7-7.1,10c-0.7,0.8-1.5,1.7-2.3,2.5l-1.6,1.6c-1.8,1.8-3.8,3.4-5.9,4.6c-2.4,1.2-5,2.1-7.6,2.1
	c-3.1,0-6.2-0.7-8.5-3c-1.9-1.9-2.9-4.3-2.8-7c0-0.9,0.1-1.7,0.4-2.5c0.2-0.6,0.5-1.2,0.7-1.8c0.2-0.3,0.4-0.7,0.7-0.9l1.6-1.6
	c0.6-0.6,1.4-0.9,2.3-1c2-0.1,3.8-0.7,5.5-1.7c1.4-0.8,2.7-1.8,3.9-2.9c0.2-0.2,0.3-0.4,0.5-0.5c2.3-2.6,4.4-5.5,6.3-8.5
	c2.4-3.8,4.5-7.7,6.6-11.7c2.4-4.8,4.8-9.6,7-14.5c2.1-4.7,4.3-9.4,6.3-14.1l-0.5-0.1c-1.1-0.2-2.3-0.4-3.5-0.4
	c-2.6,0-4.8,0.6-6.8,2.1c-1.9,2.3-2.6,5.3-2.7,8.3c0,1.7,0.2,3.5,0.5,5.2c0.4,1.8,1.1,3.6,1.9,5.3c0.7,1.3,0.4,2.9-0.6,3.9l-1.6,1.6
	c-0.1,0.1-0.1,0.1-0.2,0.2c-1.3,1.1-2.9,1.9-4.5,2.5c-1.4,0.5-3,0.8-4.5,0.8c-3.2,0-6.3-0.7-8.9-2.5c-2.4-1.7-4.2-4-5.2-6.7
	c-1.1-2.7-1.5-5.5-1.4-8.4c0.1-4.3,1.4-8.3,3.6-12c1.1-1.8,2.3-3.4,3.8-4.9l1.6-1.6c1.8-1.8,4-3.4,6.3-4.7c5-2.9,10.7-3.8,16.4-3.8
	c2.9,0,5.7,0.2,8.6,0.5c3,0.3,6,0.7,9,1.2c3,0.4,5.9,0.8,8.9,1.1c2.7,0.3,5.4,0.5,8.1,0.5c1.9,0,3.4,1.5,3.4,3.4
	c0,2.4,0,4.8-0.1,7.2c1-1.1,2-2.1,3-3.1l1.6-1.6c9.3-9.3,20.4-16.7,32.6-21.8c12.2-5,25.2-7.6,38.3-7.6c13.2,0,26.2,2.6,38.3,7.6
	c12.2,5,23.2,12.5,32.6,21.8c9.3,9.3,16.7,20.4,21.8,32.6c5,12.2,7.6,25.2,7.6,38.3C266,155.7,265.1,163.4,263.3,171z"/>
<path class="st1" d="M160.4,149.5c-2.9,0-5.3-0.8-7.4-2.4c-2.1-1.6-3.1-4-3.1-7.1c0-1.5,0.2-3.4,0.6-5.9c0.4-2.5,0.9-5.1,1.4-7.9
	c0.5-2.8,1-5.5,1.6-8c0.6-2.5,0.9-4.6,1.2-6.1l3.2-16.1h-7.2l0.4-3.3c4-1.3,7.9-3.1,11.8-5.3c3.9-2.2,7.6-4.8,11-7.8h4.3L175.8,91
	h8.6l-1,5h-8.6l-6.9,35.6c-0.2,1-0.4,2-0.6,2.9c-0.1,0.9-0.2,1.8-0.2,2.7c-0.1,2.4,0.4,3.9,1.5,4.6c1.1,0.7,2.7,0.9,4.9,0.4
	c-0.9,1.9-2,3.4-3.4,4.4c-1.4,1-2.9,1.7-4.6,2.2C163.9,149.3,162.2,149.5,160.4,149.5 M96.1,149l11.1-58l14.3-1.8L120,99.6
	c1.5-3.4,3.7-6,6.5-7.9c2.8-1.9,6.1-2.9,9.8-2.9c4,0,6.9,1.1,8.9,3.3c2,2.2,3,5.1,3,8.7c0,4.1-1.2,7.6-3.6,10.4
	c-2.4,2.8-5.5,4.2-9.2,4.2c-1.1,0-2.2-0.1-3.3-0.4c-1.1-0.3-1.9-0.8-2.5-1.5c1.1-1.5,2-3.3,2.8-5.5c0.7-2.2,1.1-4.2,1.1-6.1
	c0-1.3-0.3-2.4-0.8-3.3c-0.5-0.8-1.5-1.3-2.9-1.3c-1.4,0-2.7,0.5-3.8,1.5c-1.1,1-2.1,2.4-3,4.1c-0.8,1.7-1.6,3.7-2.2,5.9
	c-0.6,2.2-1.2,4.5-1.6,6.9l-5.3,31.5L96.1,149z M56.1,120.9h13.7c0-2.6,0-5.6,0.1-9c0.1-3.5,0.2-7.2,0.3-11.3
	c0.1-4.1,0.3-8.3,0.6-12.5h-0.2c-2.6,6.8-5.1,12.9-7.7,18.4C60.3,112,58,116.8,56.1,120.9z M219.1,132.4l0.3-1.7h2.7l0.5-2.2
	c0.4-1.5,1-2.6,1.8-3.5c0.8-0.9,1.8-1.5,3-1.8c1.2-0.4,2.5-0.5,3.9-0.5c0.7,0,1.4,0.1,2.1,0.2c0.7,0.1,1.4,0.3,1.9,0.5
	c0.6,0.2,1.1,0.5,1.4,1c0.4,0.4,0.5,0.9,0.5,1.5c0,0.9-0.3,1.6-1,2c-0.7,0.4-1.5,0.6-2.3,0.6c-0.3,0-0.7,0-1-0.1
	c-0.3-0.1-0.7-0.2-0.9-0.3c0.2-0.3,0.3-0.6,0.4-1c0.1-0.4,0.1-0.8,0.1-1.1c0-0.5-0.1-0.8-0.3-1.1c-0.2-0.3-0.6-0.4-1.1-0.4
	c-0.8,0-1.4,0.4-1.8,1.1c-0.4,0.7-0.7,1.6-0.9,2.7l-0.5,2.6h3.4l-0.2,1.7H219.1z M217.5,157.4c-1,0-1.8-0.2-2.4-0.5
	c-0.6-0.4-1-0.8-1.2-1.5c0.7-0.2,1.4-0.5,1.9-0.8c0.5-0.4,1-0.9,1.4-1.5c0.4-0.7,0.7-1.6,1.1-2.8c0.3-1.2,0.7-2.6,1-4.4l2.6-14h5.9
	l-2.9,14.9c-0.5,2.4-1,4.4-1.6,6c-0.6,1.6-1.4,2.7-2.3,3.5C220,157,218.9,157.4,217.5,157.4z M205.5,148.6c0.7,0,1.3-0.3,1.9-0.9
	c0.5-0.6,1-1.3,1.4-2.3c0.4-1,0.7-2,1-3.2c0.3-1.2,0.5-2.3,0.6-3.5c0.1-1.2,0.2-2.3,0.2-3.3c0-1-0.2-1.7-0.5-2.3
	c-0.3-0.6-0.9-0.9-1.8-0.9c-0.7,0-1.3,0.3-1.9,0.8c-0.6,0.6-1,1.3-1.4,2.3c-0.4,0.9-0.7,2-1,3.1c-0.3,1.2-0.4,2.3-0.6,3.5
	c-0.1,1.2-0.2,2.3-0.2,3.4c0,0.9,0.2,1.7,0.5,2.3C204,148.3,204.6,148.6,205.5,148.6z M204.8,150.9c-1.3,0-2.4-0.2-3.3-0.6
	c-0.9-0.4-1.7-0.9-2.3-1.6c-0.6-0.7-1.1-1.5-1.3-2.3c-0.3-0.9-0.4-1.9-0.4-2.9c0-1.8,0.2-3.5,0.7-5.2c0.5-1.6,1.2-3.1,2.2-4.4
	c1-1.3,2.1-2.3,3.6-3c1.4-0.7,3.1-1.1,5-1.1c1.3,0,2.4,0.2,3.4,0.6c0.9,0.4,1.7,0.9,2.3,1.5c0.6,0.7,1,1.4,1.3,2.3
	c0.3,0.9,0.4,1.8,0.4,2.9c0,1.8-0.2,3.5-0.7,5.2c-0.5,1.6-1.2,3.1-2.2,4.4c-1,1.3-2.1,2.3-3.6,3
	C208.4,150.5,206.7,150.9,204.8,150.9z M296.9,176.1l-13.9-0.8c0.7-3.3,1.2-6.5,1.7-9.6c0.4-3.1,0.7-5.8,0.7-8.2c0-0.9,0-1.8,0-2.5
	c0-0.8-0.1-1.5-0.2-2.3c0.9-0.6,2.1-1,3.4-1.3c1.3-0.3,2.7-0.5,4-0.5c2,0,3.7,0.5,5.2,1.6c1.5,1,2.3,2.9,2.2,5.7
	c0,0.8-0.1,2.1-0.4,4c-0.3,1.8-0.6,4-1.1,6.4C298,170.8,297.5,173.4,296.9,176.1z M268.3,216.2c2,0,3.6-0.7,4.8-2.1
	c1.3-1.4,2.3-3.1,3-5.1c0.7-2,1.3-4,1.6-5.9l4.3-24c-1-0.7-2-1.3-3.1-1.7c-1.1-0.4-2.1-0.6-3-0.6c-1.8,0-3.4,0.6-4.8,1.9
	c-1.4,1.3-2.6,3-3.6,5.2c-1,2.2-1.8,4.7-2.5,7.4c-0.6,2.7-1.1,5.5-1.4,8.3c-0.3,2.8-0.4,5.5-0.4,8c0,2.2,0.3,4.2,1,5.9
	C264.9,215.3,266.3,216.2,268.3,216.2z M263.4,221.9c-3.3,0-6-0.8-8.1-2.3c-2.1-1.5-3.6-3.6-4.6-6.3c-1-2.7-1.5-5.7-1.5-9.2
	c0-4.6,0.7-8.9,2-12.9c1.3-4,3.2-7.5,5.7-10.5c2.4-3,5.3-5.3,8.5-7c3.2-1.7,6.8-2.5,10.6-2.5c1.6,0,3.1,0.1,4.6,0.4
	c1.5,0.2,2.8,0.6,4,1.1l12.4,2.4c-1,5.2-2,10.6-3,16.1c-1,5.5-2.2,11.2-3.5,17.1c-0.1,0.6-0.2,1.2-0.3,1.9c-0.1,0.7-0.2,1.4-0.2,1.9
	c0,1,0.3,1.9,0.9,2.7c0.6,0.8,1.5,1.2,2.7,1.3c-0.4,1.3-1,2.3-2,3.2c-1,0.8-2.1,1.4-3.4,1.8c-1.3,0.4-2.6,0.6-3.9,0.6
	c-1.8,0-3.5-0.4-4.9-1.3c-1.4-0.9-2.4-2.2-2.8-3.9c-1.6,1.5-3.5,2.8-5.7,3.8C268.7,221.4,266.2,221.9,263.4,221.9z M218.9,216.3
	c1.7,0,3.1-0.7,4.5-2.1c1.3-1.4,2.5-3.2,3.4-5.5c1-2.3,1.7-4.8,2.4-7.6c0.6-2.8,1.1-5.6,1.4-8.5c0.3-2.9,0.5-5.5,0.5-8
	c0-2.3-0.4-4.2-1.2-5.7c-0.8-1.4-2.2-2.2-4.3-2.2c-1.7,0-3.2,0.7-4.5,2c-1.3,1.3-2.5,3.2-3.4,5.4c-0.9,2.3-1.7,4.8-2.3,7.6
	c-0.6,2.8-1.1,5.6-1.4,8.5c-0.3,2.9-0.5,5.6-0.5,8.2c0,2.3,0.4,4.1,1.2,5.6C215.4,215.6,216.8,216.3,218.9,216.3z M217.4,221.9
	c-3.1,0-5.7-0.4-8-1.3c-2.3-0.9-4.1-2.1-5.6-3.8c-1.5-1.6-2.5-3.5-3.2-5.7c-0.7-2.1-1-4.5-1-7c0-4.4,0.6-8.5,1.7-12.5
	c1.2-4,2.9-7.5,5.2-10.5c2.3-3.1,5.2-5.5,8.6-7.2c3.4-1.7,7.4-2.6,12-2.6c3.2,0,5.9,0.4,8.1,1.3c2.2,0.9,4.1,2.1,5.5,3.7
	c1.4,1.6,2.5,3.4,3.2,5.6c0.7,2.1,1,4.4,1,6.9c0,4.4-0.6,8.5-1.7,12.5c-1.2,4-2.9,7.5-5.2,10.6c-2.3,3.1-5.2,5.5-8.6,7.3
	C226,221,222,221.9,217.4,221.9z M168.6,216.3c1.7,0,3.1-0.7,4.5-2.1c1.3-1.4,2.5-3.2,3.4-5.5c1-2.3,1.7-4.8,2.4-7.6
	c0.6-2.8,1.1-5.6,1.4-8.5c0.3-2.9,0.5-5.5,0.5-8c0-2.3-0.4-4.2-1.2-5.7c-0.8-1.4-2.2-2.2-4.3-2.2c-1.7,0-3.2,0.7-4.5,2
	c-1.3,1.3-2.5,3.2-3.4,5.4c-0.9,2.3-1.7,4.8-2.3,7.6c-0.6,2.8-1.1,5.6-1.4,8.5c-0.3,2.9-0.5,5.6-0.5,8.2c0,2.3,0.4,4.1,1.2,5.6
	C165.1,215.6,166.5,216.3,168.6,216.3z M167.1,221.9c-3.1,0-5.7-0.4-8-1.3c-2.3-0.9-4.1-2.1-5.6-3.8c-1.5-1.6-2.5-3.5-3.2-5.7
	c-0.7-2.1-1-4.5-1-7c0-4.4,0.6-8.5,1.7-12.5c1.2-4,2.9-7.5,5.2-10.5c2.3-3.1,5.2-5.5,8.6-7.2c3.4-1.7,7.4-2.6,12-2.6
	c3.2,0,5.9,0.4,8.1,1.3c2.2,0.9,4.1,2.1,5.5,3.7c1.4,1.6,2.5,3.4,3.2,5.6c0.7,2.1,1,4.4,1,6.9c0,4.4-0.6,8.5-1.7,12.5
	c-1.2,4-2.9,7.5-5.2,10.6c-2.3,3.1-5.2,5.5-8.6,7.3C175.7,221,171.7,221.9,167.1,221.9z M136.7,194.5c-1,0-2.2-0.1-3.5-0.2
	c-1.4-0.1-2.8-0.3-4.3-0.6c-1.5-0.2-2.9-0.5-4.1-0.8l1.7-8c1,0.1,2.1,0.1,3.4,0.2c1.3,0.1,2.6,0.1,4,0.1c1.3,0,2.5,0,3.6,0
	c1.3,0,2.6,0,3.9,0c1.3,0,2.6-0.1,3.9-0.1c0.1,0.4,0.1,0.7,0.2,1.1c0.1,0.3,0.1,0.7,0.1,1.1c-0.1,2.2-0.9,4-2.4,5.3
	C141.5,193.8,139.4,194.5,136.7,194.5z M110.7,224.5c-1.8,0-3.4-0.3-4.8-1c-1.4-0.6-2.3-1.5-2.5-2.6c0.9-0.4,1.6-1,2.2-1.8
	c0.5-0.8,1-1.7,1.4-2.9c0.4-1.2,0.8-2.7,1.1-4.6l7.1-35.5c0.7-3.2,1.8-5.9,3.4-8.2c1.6-2.3,3.6-4.1,6.1-5.5c2.5-1.4,5.4-2.3,8.7-2.6
	l-10.6,52.7c-0.6,2.7-1.3,4.9-2.2,6.8c-0.9,1.8-2.2,3.2-3.7,4C115.2,224.1,113.2,224.5,110.7,224.5z M102.3,185.5
	c-2.3,0-4.3-0.5-5.9-1.6c-1.6-1.1-2.8-2.5-3.5-4.4c-0.8-1.8-1.1-3.9-1.1-6.2c0.1-2.9,0.8-5.7,2.3-8.5c1.5-2.8,3.8-5.1,6.9-6.9
	c3.1-1.8,7.1-2.8,12-2.8c3.5,0,6.8,0.3,9.9,0.8c3.1,0.5,6.1,1,9.1,1.6c2.9,0.5,5.7,0.8,8.3,0.8c2.3,0,4.5-0.3,6.4-0.8
	c2-0.5,3.8-1.6,5.5-3.3c0.7,0.7,1.3,1.6,1.8,2.7c0.5,1,0.7,2.1,0.7,3.3c0,1.4-0.4,2.8-1.1,4.1c-0.7,1.3-1.8,2.4-3.3,3.3
	c-1.5,0.9-3.4,1.3-5.8,1.3c-2.1,0-4.2-0.2-6.3-0.6c-2.1-0.4-4.3-1.1-6.8-1.9c-2.4-0.9-5.2-2-8.2-3.3l-0.1-0.7
	c-1.4-0.6-2.7-0.9-3.8-1.1c-1.1-0.2-2.3-0.3-3.5-0.3c-3.2,0-5.8,1.1-7.7,3.3c-1.9,2.2-2.9,5.2-2.9,9.1c-0.1,1.8,0.1,3.5,0.5,5.1
	c0.4,1.6,1,3.3,1.9,5.1c-0.8,0.7-1.7,1.3-2.8,1.6C104.1,185.4,103.1,185.5,102.3,185.5z M99.2,218.2c-0.6-0.6-1.3-1.2-1.9-1.9
	c-8.9-8.9-16.1-19.6-21-31.4c-3.7-9-6.1-18.7-7-28.8c0.3,0.9,0.7,1.8,1,2.7c1.3,2.9,3.1,5.8,5.7,7.7c0.5,0.4,1,0.7,1.5,1
	c1.1,5.2,2.7,10.1,4.7,14.9c4.6,11,11.3,21,19.6,29.3c0.5,0.5,1,0.9,1.4,1.4c-0.1,0.6-0.3,1.2-0.5,1.7c-0.2,0.6-0.5,1.3-0.9,1.9
	c-0.1,0.2-0.3,0.3-0.4,0.3L99.2,218.2z M223.5,225.6c-6.4,4.7-13.3,8.7-20.7,11.8c-11.4,4.7-23.9,7.3-37,7.3
	c-13.1,0-25.6-2.6-37-7.3c-5.7-2.4-11.2-5.3-16.3-8.6c2.3-0.2,4.5-0.7,6.5-1.8c0.5-0.3,1-0.6,1.4-0.9c3.5,2,7.1,3.8,10.9,5.4
	c10.6,4.4,22.3,6.8,34.5,6.8c12.2,0,23.9-2.4,34.5-6.8c4-1.6,7.8-3.6,11.4-5.7c1.8,0.4,3.7,0.5,5.6,0.5
	C219.4,226.1,221.5,225.9,223.5,225.6z M165.8,51c13.1,0,25.6,2.6,37,7.3c11.9,4.9,22.5,12.1,31.4,21c8.9,8.9,16.1,19.6,21,31.5
	c4.7,11.4,7.3,23.9,7.3,37c0,8.5-1.1,16.8-3.2,24.6c-2.2,1.6-4.1,3.5-5.8,5.6c-1.8,2.3-3.4,4.8-4.6,7.4c-0.1-0.6-0.2-1.3-0.3-1.9
	c0.2-0.4,0.4-0.8,0.5-1.2c4.4-10.6,6.8-22.3,6.8-34.5c0-12.2-2.4-23.9-6.8-34.5c-4.6-11-11.3-21-19.6-29.3
	c-8.3-8.3-18.3-15-29.3-19.6c-10.6-4.4-22.3-6.8-34.5-6.8c-12.2,0-23.9,2.4-34.5,6.8c-11,4.6-21,11.3-29.3,19.6
	c-4.1,4.1-7.9,8.6-11.1,13.5c0.1-3.4,0.2-6.7,0.2-10.1l0-1.1c2-2.4,4.1-4.7,6.2-6.9c8.9-8.9,19.6-16.1,31.5-21
	C140.2,53.6,152.7,51,165.8,51z M84.4,164.9c-2.2,0-4.2-0.6-5.8-1.9c-1.7-1.3-3.1-3.3-4.4-6c-1.2-2.8-2.2-6.4-2.9-11
	c-0.7-4.6-1.2-10.2-1.5-16.9h-18c-3.2,5.5-6,9.8-8.7,12.8c-2.6,3-5,5.1-7.2,6.2c-2.2,1.1-4.2,1.7-6.1,1.7c-2.7,0-4.7-0.7-6-2
	c-1.3-1.3-1.9-2.8-1.8-4.5c0-0.6,0.1-1.1,0.2-1.5c0.1-0.4,0.3-0.9,0.6-1.3c2.4-0.1,4.8-0.8,7.1-2.2c2.3-1.4,4.6-3.3,6.8-5.7
	c2.2-2.5,4.4-5.5,6.6-9c2.2-3.5,4.4-7.5,6.7-12c2.3-4.4,4.6-9.3,7.1-14.6c2.4-5.3,5-11,7.6-17l-0.6-1c-1-0.4-2.2-0.7-3.6-1
	c-1.4-0.3-2.8-0.4-4.2-0.4c-4.3,0-7.7,1.4-10.3,4.1c-2.6,2.8-4,6.5-4.1,11.2c0,2.1,0.2,4,0.6,5.9c0.4,1.9,1.1,3.9,2.2,6.1
	c-1,0.8-2.1,1.4-3.4,1.8c-1.3,0.4-2.4,0.6-3.5,0.6c-2.8,0-5.1-0.6-6.9-1.9c-1.8-1.3-3.2-3-4-5.2c-0.8-2.2-1.2-4.5-1.2-7.1
	c0.1-3.5,1.1-7,3.1-10.3c2-3.3,4.9-6.1,8.8-8.4c3.9-2.2,8.8-3.4,14.7-3.4c2.6,0,5.3,0.2,8.2,0.5c2.9,0.3,5.9,0.7,8.9,1.2
	c3.1,0.4,6.1,0.8,9,1.2c3,0.3,5.8,0.5,8.4,0.5c0,4-0.1,8.3-0.2,12.8c-0.1,4.5-0.2,9-0.3,13.7c-0.1,4.6-0.1,9.2-0.1,13.7
	c0.1,4.8,0.3,9.4,0.6,13.8c0.3,4.4,0.8,8.5,1.4,12.2c0.7,3.7,1.6,7,2.8,9.8c1.2,2.8,2.6,5.1,4.4,6.9c-0.3,1.1-1,2.2-2,3.4
	c-1.1,1.2-2.4,2.2-3.9,3C88,164.5,86.3,164.9,84.4,164.9z"/>
</svg>
